<?xml version="1.0" encoding="UTF-8"?>
<svg width="86px" height="95px" viewBox="0 0 86 95" version="1.1" xmlns="http://www.w3.org/2000/svg" xmlns:xlink="http://www.w3.org/1999/xlink">
    <!-- Generator: sketchtool 64 (101010) - https://sketch.com -->
    <title>C168C64E-F452-461D-B52D-188D1EFA46F9</title>
    <desc>Created with sketchtool.</desc>
    <g id="UI" stroke="none" stroke-width="1" fill="none" fill-rule="evenodd">
        <g id="Careers-" transform="translate(-1045.000000, -1267.000000)" fill="#2D3141" fill-rule="nonzero">
            <g id="education" transform="translate(1045.000000, 1267.000000)">
                <path d="M43,31.402345 L23,39.4101575 L23,59 L25.5,59 L25.5,42.9453125 L30.5,44.703125 L30.5,55.328125 L31.10547,55.69922 C31.10547,55.69922 36.52539,59 43,59 C49.47461,59 54.8945325,55.69922 54.8945325,55.69922 L55.5,55.328125 L55.5,44.703125 L63,42.0761725 L63,39.4101575 L43,31.402345 Z M43,34.0976575 L59.4453125,40.6699225 L43,46.421875 L26.5546875,40.6699225 L43,34.0976575 Z M33,45.572265 L43,49.078125 L43.4101575,48.93164 L53,45.5820325 L53,53.82422 C52.1796875,54.2832025 48.078125,56.5 43,56.5 C37.921875,56.5 33.8203125,54.2832025 33,53.82422 L33,45.572265 Z M24.25,61.5 C23.55664,61.5 23,62.05664 23,62.75 C23,63.44336 23.55664,64 24.25,64 C24.94336,64 25.5,63.44336 25.5,62.75 C25.5,62.05664 24.94336,61.5 24.25,61.5 Z" id="Shape"></path>
                <path d="M23.9612168,5 C20.7428313,5 17.7560434,6.75502333 16.1668156,9.55357143 L-2.80807915,43.0096726 C-4.39730695,45.8003157 -4.39730695,49.1996843 -2.80807915,51.9903274 L16.1668156,85.4464286 C17.7560434,88.2449787 20.7428313,90 23.9612168,90 L62.0387832,90 C65.2571687,90 68.2439566,88.2449787 69.8331844,85.4464286 L88.8080791,51.9903274 C90.397307,49.1996843 90.397307,45.8003157 88.8080791,43.0096726 L69.8331844,9.55357143 C68.2439566,6.75502333 65.2571687,5 62.0387832,5 L23.9612168,5 Z M23.9612168,9.04761905 L62.0387832,9.04761905 C63.7637737,9.04761905 65.3689726,9.95675274 66.2554265,11.5141369 L85.2942098,44.9702381 C86.1806637,46.5276223 86.1806637,48.4723777 85.2942098,50.0297619 L66.2554265,83.4858631 C65.3689726,85.0432473 63.7637737,85.952381 62.0387832,85.952381 L23.9612168,85.952381 C22.2362263,85.952381 20.6310274,85.0432473 19.7445735,83.4858631 L0.705790243,50.0297619 C-0.180663682,48.4723777 -0.180663682,46.5276223 0.705790243,44.9702381 L19.7445735,11.5141369 C20.6310274,9.95675274 22.2362263,9.04761905 23.9612168,9.04761905 Z" id="Shape-Copy-3" transform="translate(43.000000, 47.500000) rotate(-270.000000) translate(-43.000000, -47.500000) "></path>
            </g>
        </g>
    </g>
</svg>