<?xml version="1.0" encoding="UTF-8"?>
<svg width="86px" height="95px" viewBox="0 0 86 95" version="1.1" xmlns="http://www.w3.org/2000/svg" xmlns:xlink="http://www.w3.org/1999/xlink">
    <!-- Generator: sketchtool 64 (101010) - https://sketch.com -->
    <title>1EE97B52-7021-4D60-8F05-495D7FFF9657</title>
    <desc>Created with sketchtool.</desc>
    <g id="UI" stroke="none" stroke-width="1" fill="none" fill-rule="evenodd">
        <g id="Careers-" transform="translate(-100.000000, -1267.000000)" fill="#2D3141" fill-rule="nonzero">
            <g id="flexible-hours" transform="translate(100.000000, 1267.000000)">
                <path d="M33.7142857,31 C28.3714286,31 24,35.3714286 24,40.7142857 C24,46.0571429 28.3714286,50.4285714 33.7142857,50.4285714 C39.0571429,50.4285714 43.4285714,46.0571429 43.4285714,40.7142857 C43.4285714,35.3714286 39.0571429,31 33.7142857,31 Z M33.7142857,34.2380952 C37.2761905,34.2380952 40.1904762,37.152381 40.1904762,40.7142857 C40.1904762,44.2761905 37.2761905,47.1904762 33.7142857,47.1904762 C30.152381,47.1904762 27.2380952,44.2761905 27.2380952,40.7142857 C27.2380952,37.152381 30.152381,34.2380952 33.7142857,34.2380952 Z M49.9047619,34.2380952 L49.9047619,37.4761905 L46.2429311,37.4761905 C46.510074,38.512381 46.6666667,39.5939048 46.6666667,40.7142857 C46.6666667,42.4337143 46.323605,44.0705714 45.7148431,45.5714286 L54.7619048,45.5714286 L54.7650668,63.3809524 L32.0952381,63.3809524 L32.0952381,53.5559902 C30.9635238,53.415133 29.8787619,53.1293193 28.8571429,52.7148431 L28.8571429,63.3809524 C28.8571429,65.1667619 30.3094286,66.6190476 32.0952381,66.6190476 L54.7619048,66.6190476 C56.5477143,66.6190476 58,65.1667619 58,63.3809524 L58,40.7142857 C58,38.9284762 56.5477143,37.4761905 54.7619048,37.4761905 L53.1428571,37.4761905 L53.1428571,34.2380952 L49.9047619,34.2380952 Z M35.172061,36.1796876 L32.4177828,40.8755581 L35.9815848,44.43936 L37.43936,42.8203124 L35.0107886,40.5530134 L36.952381,37.1536458 L35.172061,36.1796876 Z" id="Shape"></path>
                <path d="M23.9612168,5 C20.7428313,5 17.7560434,6.75502333 16.1668156,9.55357143 L-2.80807915,43.0096726 C-4.39730695,45.8003157 -4.39730695,49.1996843 -2.80807915,51.9903274 L16.1668156,85.4464286 C17.7560434,88.2449787 20.7428313,90 23.9612168,90 L62.0387832,90 C65.2571687,90 68.2439566,88.2449787 69.8331844,85.4464286 L88.8080791,51.9903274 C90.397307,49.1996843 90.397307,45.8003157 88.8080791,43.0096726 L69.8331844,9.55357143 C68.2439566,6.75502333 65.2571687,5 62.0387832,5 L23.9612168,5 Z M23.9612168,9.04761905 L62.0387832,9.04761905 C63.7637737,9.04761905 65.3689726,9.95675274 66.2554265,11.5141369 L85.2942098,44.9702381 C86.1806637,46.5276223 86.1806637,48.4723777 85.2942098,50.0297619 L66.2554265,83.4858631 C65.3689726,85.0432473 63.7637737,85.952381 62.0387832,85.952381 L23.9612168,85.952381 C22.2362263,85.952381 20.6310274,85.0432473 19.7445735,83.4858631 L0.705790243,50.0297619 C-0.180663682,48.4723777 -0.180663682,46.5276223 0.705790243,44.9702381 L19.7445735,11.5141369 C20.6310274,9.95675274 22.2362263,9.04761905 23.9612168,9.04761905 Z" id="Shape" transform="translate(43.000000, 47.500000) rotate(-270.000000) translate(-43.000000, -47.500000) "></path>
            </g>
        </g>
    </g>
</svg>