<?xml version="1.0" encoding="UTF-8"?>
<svg width="86px" height="95px" viewBox="0 0 86 95" version="1.1" xmlns="http://www.w3.org/2000/svg" xmlns:xlink="http://www.w3.org/1999/xlink">
    <!-- Generator: sketchtool 64 (101010) - https://sketch.com -->
    <title>C4399D0E-D193-4AAA-BD40-6ABD5DEF1FBD</title>
    <desc>Created with sketchtool.</desc>
    <g id="UI" stroke="none" stroke-width="1" fill="none" fill-rule="evenodd">
        <g id="Careers-" transform="translate(-730.000000, -1267.000000)" fill="#2D3141" fill-rule="nonzero">
            <g id="independence" transform="translate(730.000000, 1267.000000)">
                <path d="M25.8571429,34 L25.8571429,55.4285714 L23,55.4285714 L23,56.8571429 C23,60.0323657 25.65625,62.5714286 28.8035714,62.5714286 L57.1964286,62.5714286 C60.34375,62.5714286 63,60.0323657 63,56.8571429 L63,55.4285714 L60.1428571,55.4285714 L60.1428571,34 L25.8571429,34 Z M28.7142857,36.8571429 L57.2857143,36.8571429 L57.2857143,55.4285714 L28.7142857,55.4285714 L28.7142857,36.8571429 Z M40.1428571,41.1428571 L40.1428571,49.7142857 L42.4196429,47.8392857 L43.7142857,51.0089286 L44.875,50.4285714 L43.4464286,47.3035714 L46.4375,46.9910714 L40.1428571,41.1428571 Z M26.4375,58.2857143 L59.5625,58.2857143 C59.0546871,59.1004471 58.2734371,59.7142857 57.1964286,59.7142857 L28.8035714,59.7142857 C27.7265629,59.7142857 26.9453129,59.1004471 26.4375,58.2857143 Z" id="Shape"></path>
                <path d="M23.9612168,5 C20.7428313,5 17.7560434,6.75502333 16.1668156,9.55357143 L-2.80807915,43.0096726 C-4.39730695,45.8003157 -4.39730695,49.1996843 -2.80807915,51.9903274 L16.1668156,85.4464286 C17.7560434,88.2449787 20.7428313,90 23.9612168,90 L62.0387832,90 C65.2571687,90 68.2439566,88.2449787 69.8331844,85.4464286 L88.8080791,51.9903274 C90.397307,49.1996843 90.397307,45.8003157 88.8080791,43.0096726 L69.8331844,9.55357143 C68.2439566,6.75502333 65.2571687,5 62.0387832,5 L23.9612168,5 Z M23.9612168,9.04761905 L62.0387832,9.04761905 C63.7637737,9.04761905 65.3689726,9.95675274 66.2554265,11.5141369 L85.2942098,44.9702381 C86.1806637,46.5276223 86.1806637,48.4723777 85.2942098,50.0297619 L66.2554265,83.4858631 C65.3689726,85.0432473 63.7637737,85.952381 62.0387832,85.952381 L23.9612168,85.952381 C22.2362263,85.952381 20.6310274,85.0432473 19.7445735,83.4858631 L0.705790243,50.0297619 C-0.180663682,48.4723777 -0.180663682,46.5276223 0.705790243,44.9702381 L19.7445735,11.5141369 C20.6310274,9.95675274 22.2362263,9.04761905 23.9612168,9.04761905 Z" id="Shape-Copy-2" transform="translate(43.000000, 47.500000) rotate(-270.000000) translate(-43.000000, -47.500000) "></path>
            </g>
        </g>
    </g>
</svg>