<?xml version="1.0" encoding="UTF-8"?>
<svg width="86px" height="95px" viewBox="0 0 86 95" version="1.1" xmlns="http://www.w3.org/2000/svg" xmlns:xlink="http://www.w3.org/1999/xlink">
    <!-- Generator: sketchtool 64 (101010) - https://sketch.com -->
    <title>CBDE1BE7-B9F1-4E43-8C97-891345E91B85</title>
    <desc>Created with sketchtool.</desc>
    <g id="UI" stroke="none" stroke-width="1" fill="none" fill-rule="evenodd">
        <g id="Careers-" transform="translate(-415.000000, -1267.000000)" fill="#2D3141" fill-rule="nonzero">
            <g id="responsibility" transform="translate(415.000000, 1267.000000)">
                <path d="M28.4285714,34 C27.0867857,34 26,35.0867857 26,36.4285714 L26,41.2857143 L26,60.7142857 L41.2070319,60.7142857 C40.9326033,59.9395714 40.7360784,59.1296429 40.6425784,58.2857143 L28.4285714,58.2857143 L28.4285714,41.2857143 L55.1428571,41.2857143 L55.1428571,46.7784604 C56.0062143,47.0844604 56.8234286,47.4841304 57.5714286,47.9856304 L57.5714286,37.6428571 L57.5714286,36.4285714 C57.5714286,35.0867857 56.4846429,34 55.1428571,34 L28.4285714,34 Z M33.2857143,44.9285714 C32.6150828,44.9285714 32.0714286,45.4722257 32.0714286,46.1428571 C32.0714286,46.8134886 32.6150828,47.3571429 33.2857143,47.3571429 C33.9563458,47.3571429 34.5,46.8134886 34.5,46.1428571 C34.5,45.4722257 33.9563458,44.9285714 33.2857143,44.9285714 Z M38.1428571,44.9285714 C37.4725714,44.9285714 36.9285714,45.4725714 36.9285714,46.1428571 C36.9285714,46.8131429 37.4725714,47.3571429 38.1428571,47.3571429 L46.5076731,47.3571429 C47.658816,46.7645714 48.9272698,46.3681642 50.2714841,46.2163785 C50.2726984,46.1908785 50.2857143,46.1683571 50.2857143,46.1428571 C50.2857143,45.4725714 49.7417143,44.9285714 49.0714286,44.9285714 L38.1428571,44.9285714 Z M51.5,48.5714286 C46.8055714,48.5714286 43,52.377 43,57.0714286 C43,61.7658571 46.8055714,65.5714286 51.5,65.5714286 C56.1944286,65.5714286 60,61.7658571 60,57.0714286 C60,52.377 56.1944286,48.5714286 51.5,48.5714286 Z M33.2857143,49.7857143 C32.6150828,49.7857143 32.0714286,50.3293685 32.0714286,51 C32.0714286,51.6706315 32.6150828,52.2142857 33.2857143,52.2142857 C33.9563458,52.2142857 34.5,51.6706315 34.5,51 C34.5,50.3293685 33.9563458,49.7857143 33.2857143,49.7857143 Z M38.1428571,49.7857143 C37.4725714,49.7857143 36.9285714,50.3297143 36.9285714,51 C36.9285714,51.6702857 37.4725714,52.2142857 38.1428571,52.2142857 L41.7216801,52.2142857 C42.1624659,51.3290714 42.7178498,50.5142857 43.3723498,49.7857143 L38.1428571,49.7857143 Z M50.2857143,52.2142857 L52.7142857,52.2142857 L52.5150676,59.5 L50.4873051,59.5 L50.2857143,52.2142857 Z M51.5,60.7142857 C52.1702857,60.7142857 52.7142857,61.2582857 52.7142857,61.9285714 C52.7142857,62.5988571 52.1702857,63.1428571 51.5,63.1428571 C50.8297143,63.1428571 50.2857143,62.5988571 50.2857143,61.9285714 C50.2857143,61.2582857 50.8297143,60.7142857 51.5,60.7142857 Z" id="Shape"></path>
                <path d="M23.9612168,5 C20.7428313,5 17.7560434,6.75502333 16.1668156,9.55357143 L-2.80807915,43.0096726 C-4.39730695,45.8003157 -4.39730695,49.1996843 -2.80807915,51.9903274 L16.1668156,85.4464286 C17.7560434,88.2449787 20.7428313,90 23.9612168,90 L62.0387832,90 C65.2571687,90 68.2439566,88.2449787 69.8331844,85.4464286 L88.8080791,51.9903274 C90.397307,49.1996843 90.397307,45.8003157 88.8080791,43.0096726 L69.8331844,9.55357143 C68.2439566,6.75502333 65.2571687,5 62.0387832,5 L23.9612168,5 Z M23.9612168,9.04761905 L62.0387832,9.04761905 C63.7637737,9.04761905 65.3689726,9.95675274 66.2554265,11.5141369 L85.2942098,44.9702381 C86.1806637,46.5276223 86.1806637,48.4723777 85.2942098,50.0297619 L66.2554265,83.4858631 C65.3689726,85.0432473 63.7637737,85.952381 62.0387832,85.952381 L23.9612168,85.952381 C22.2362263,85.952381 20.6310274,85.0432473 19.7445735,83.4858631 L0.705790243,50.0297619 C-0.180663682,48.4723777 -0.180663682,46.5276223 0.705790243,44.9702381 L19.7445735,11.5141369 C20.6310274,9.95675274 22.2362263,9.04761905 23.9612168,9.04761905 Z" id="Shape-Copy" transform="translate(43.000000, 47.500000) rotate(-270.000000) translate(-43.000000, -47.500000) "></path>
            </g>
        </g>
    </g>
</svg>