<?xml version="1.0" encoding="UTF-8"?>
<svg width="192px" height="58px" viewBox="0 0 192 58" version="1.1" xmlns="http://www.w3.org/2000/svg" xmlns:xlink="http://www.w3.org/1999/xlink">
    <!-- Generator: sketchtool 64 (101010) - https://sketch.com -->
    <title>9AB2BACD-C89C-483D-B0EC-FDB2778380A4</title>
    <desc>Created with sketchtool.</desc>
    <g id="Styleguide" stroke="none" stroke-width="1" fill="none" fill-rule="evenodd">
        <g id="SPEC_Styleguide" transform="translate(-100.000000, -7114.000000)" fill="#333366">
            <path d="M125.04251,7114 L133.776823,7119.05545 L130.730693,7120.81681 L125.04251,7117.5279 L104.496669,7129.42614 L125.04251,7141.32438 L145.593531,7129.42614 L140.578812,7126.52172 L140.573632,7126.52172 L136.4655,7124.14208 L125.078773,7130.73547 L122.037823,7128.97411 L136.4655,7120.61937 L140.112568,7122.72884 L140.112568,7122.72364 L150.085019,7128.5013 L150.085019,7157.4987 L125.04251,7172 L100,7157.4987 L100,7128.5013 L125.04251,7114 Z M103.046131,7132.11234 L103.046131,7155.73735 L123.519444,7167.59402 L123.519444,7143.969 L103.046131,7132.11234 Z M147.038889,7132.11234 L126.565575,7143.969 L126.565575,7167.59402 L147.038889,7155.73735 L147.038889,7132.11234 Z M128.596381,7145.47057 C131.435292,7147.25791 138.314988,7151.15471 144.712899,7154.73457 L128.596381,7164.06611 L128.596381,7145.47057 Z M121.494027,7145.47078 L121.494027,7164.06632 L105.377509,7154.73478 C111.775419,7151.15492 118.655116,7147.25811 121.494027,7145.47078 Z M170.647645,7129.05693 C173.42698,7129.05693 175.877354,7129.44193 177.998248,7130.21194 L177.998248,7135.76878 C175.974747,7134.59507 173.500025,7134.00847 170.5746,7134.00847 C168.124226,7134.00847 166.128182,7134.80601 164.585948,7136.4011 C163.043715,7137.99671 162.273376,7140.12697 162.273376,7142.79238 C162.273376,7145.49416 162.964972,7147.58493 164.348682,7149.06415 C165.731874,7150.5439 167.59996,7151.28325 169.952941,7151.28325 C171.366698,7151.28325 172.488275,7151.08166 173.317154,7150.67847 L173.317154,7145.543 L168.069831,7145.543 L168.069831,7140.81124 L179.223435,7140.81124 L179.223435,7154.03439 C176.663753,7155.5131 173.481893,7156.25349 169.678374,7156.25349 C165.460416,7156.25349 162.136093,7155.08289 159.704369,7152.74169 C157.272127,7150.39997 156.055746,7147.1755 156.055746,7143.06775 C156.055746,7138.93506 157.384543,7135.56667 160.042137,7132.96257 C162.69973,7130.35898 166.2349,7129.05693 170.647645,7129.05693 Z M191.068687,7136.5575 C193.798808,7136.5575 195.910895,7137.37063 197.404432,7138.99585 C198.896932,7140.62212 199.64396,7142.82927 199.64396,7145.61678 L199.64396,7148.05514 L187.429908,7148.05514 C187.624695,7150.78186 189.336848,7152.14574 192.567922,7152.14574 C194.627687,7152.14574 196.43827,7151.6563 197.998635,7150.67847 L197.998635,7154.85948 C196.267314,7155.78847 194.017943,7156.25349 191.251559,7156.25349 C188.227704,7156.25349 185.88094,7155.41282 184.211267,7153.732 C182.541076,7152.05066 181.70598,7149.70634 181.70598,7146.69853 C181.70598,7143.58057 182.608422,7141.11104 184.41227,7139.28941 C186.216118,7137.46831 188.435442,7136.5575 191.068687,7136.5575 Z M251.252045,7136.55739 C254.360341,7136.55739 256.7988,7137.43495 258.566385,7139.18799 C260.333451,7140.94311 261.217762,7143.26353 261.217762,7146.1482 C261.217762,7149.26616 260.305995,7151.72946 258.484015,7153.53965 C256.661517,7155.34829 254.165555,7156.25339 250.996128,7156.25339 C247.87488,7156.25339 245.421916,7155.37635 243.6362,7153.62123 C241.849965,7151.86715 240.957366,7149.48594 240.957366,7146.47865 C240.957366,7143.37316 241.884157,7140.94311 243.737219,7139.18799 C245.589764,7137.43495 248.095051,7136.55739 251.252045,7136.55739 Z M271.142604,7131.31204 L271.142604,7137.0154 L275.34813,7137.0154 L275.34813,7141.28889 L271.142604,7141.28889 L271.142604,7148.88142 C271.142604,7150.83761 271.916052,7151.81545 273.464502,7151.81545 C274.074246,7151.81545 274.701604,7151.63776 275.34813,7151.28289 L275.34813,7155.57456 C274.494384,7156.02659 273.208586,7156.25313 271.489698,7156.25313 C267.417829,7156.25313 265.382413,7154.13223 265.382413,7149.88939 L265.382413,7141.28889 L262.347161,7141.28889 L262.347161,7137.0154 L265.382413,7137.0154 L265.382413,7132.96272 L271.142604,7131.31204 Z M285.81967,7136.55724 C286.648031,7136.55724 287.489344,7136.62062 288.343089,7136.75 C289.196316,7136.87781 290.037111,7137.06486 290.866508,7137.30906 L290.866508,7141.78363 C290.135022,7141.3555 289.351213,7141.03492 288.516636,7140.82086 C287.68154,7140.60679 286.861468,7140.50028 286.056937,7140.50028 C285.679279,7140.50028 285.322861,7140.53353 284.987683,7140.60056 C284.652505,7140.6681 284.356699,7140.76578 284.100782,7140.89412 C283.844348,7141.02297 283.643345,7141.18768 283.497255,7141.38979 C283.350647,7141.59086 283.27812,7141.82 283.27812,7142.07719 C283.27812,7142.41906 283.387428,7142.71262 283.607081,7142.95734 C283.826216,7143.20206 284.112697,7143.41301 284.466525,7143.59018 C284.819835,7143.76788 285.213034,7143.92583 285.646124,7144.06663 C286.078177,7144.20796 286.508158,7144.35084 286.935031,7144.49788 C287.70278,7144.76702 288.398002,7145.06058 289.019144,7145.37804 C289.640803,7145.69653 290.174394,7146.06855 290.619398,7146.49668 C291.064403,7146.92481 291.405797,7147.4262 291.643582,7148.00032 C291.880849,7148.57549 292,7149.25977 292,7150.05472 C292,7151.16661 291.759107,7152.11743 291.277839,7152.90614 C290.795535,7153.69433 290.156262,7154.33652 289.35743,7154.8322 C288.559116,7155.32735 287.63906,7155.68742 286.596226,7155.91447 C285.554429,7156.14048 284.472224,7156.25323 283.350647,7156.25323 C281.290882,7156.25323 279.382906,7155.93525 277.627754,7155.29929 L277.627754,7150.60443 C278.578375,7151.1796 279.526406,7151.60772 280.47081,7151.88881 C281.415732,7152.17042 282.308849,7152.31019 283.149643,7152.31019 C284.173827,7152.31019 284.980948,7152.17042 285.572561,7151.88881 C286.164173,7151.60772 286.459461,7151.1796 286.459461,7150.60443 C286.459461,7150.23761 286.325286,7149.9321 286.056937,7149.6879 C285.789105,7149.4437 285.444602,7149.22964 285.023946,7149.04571 C284.60329,7148.86282 284.143262,7148.69707 283.643345,7148.55107 C283.143427,7148.40403 282.662159,7148.23933 282.199023,7148.0554 C281.455622,7147.77431 280.800289,7147.47244 280.233543,7147.1477 C279.666797,7146.82401 279.191228,7146.44836 278.806835,7146.02023 C278.42296,7145.5921 278.130262,7145.09747 277.929259,7144.53477 C277.728256,7143.97207 277.627754,7143.30546 277.627754,7142.53545 C277.627754,7141.48435 277.856214,7140.57977 278.313134,7139.82172 C278.770572,7139.06314 279.379798,7138.44277 280.141848,7137.95956 C280.903899,7137.47688 281.775258,7137.12305 282.756444,7136.89652 C283.73763,7136.6705 284.759223,7136.55724 285.81967,7136.55724 Z M214.01289,7136.55729 C218.157285,7136.55729 220.229483,7139.13645 220.229483,7144.29634 L220.229483,7155.79502 L214.469291,7155.79502 L214.469291,7145.3599 C214.469291,7142.45029 213.433192,7140.99497 211.360995,7140.99497 C210.361677,7140.99497 209.538497,7141.37997 208.893007,7142.1505 C208.246481,7142.92051 207.923219,7143.89886 207.923219,7145.08453 L207.923219,7155.79502 L202.145413,7155.79502 L202.145413,7137.01555 L207.923219,7137.01555 L207.923219,7139.98647 L207.996782,7139.98647 C209.373757,7137.70035 211.379126,7136.55729 214.01289,7136.55729 Z M230.337612,7129.4968 L230.337612,7150.99 L240.046894,7150.99 L240.046894,7155.79502 L224.431848,7155.79502 L224.431848,7129.4968 L230.337612,7129.4968 Z M145.013419,7135.64024 L145.013419,7154.31371 C139.081753,7150.99884 131.590758,7146.74872 128.803652,7145.02374 L145.013419,7135.64024 Z M105.076833,7135.64024 L121.2866,7145.02374 C118.499494,7146.74872 111.008499,7150.99884 105.076833,7154.31371 L105.076833,7135.64024 Z M251.142218,7140.99507 C249.777158,7140.99507 248.716193,7141.46632 247.960876,7142.40727 C247.204524,7143.34874 246.827384,7144.68144 246.827384,7146.40539 C246.827384,7150.01175 248.277923,7151.81519 251.179,7151.81519 C253.945902,7151.81519 255.329612,7149.96343 255.329612,7146.25783 C255.329612,7142.74915 253.933986,7140.99507 251.142218,7140.99507 Z M191.031906,7140.46261 C190.105634,7140.46261 189.303693,7140.84865 188.62712,7141.61866 C187.951066,7142.38919 187.539217,7143.34884 187.393127,7144.49814 L194.286811,7144.49814 C194.286811,7141.80831 193.201497,7140.46261 191.031906,7140.46261 Z M113.697227,7126.44904 L121.022446,7130.73552 L125.078773,7133.08919 L125.078773,7133.08919 C128.876076,7130.89139 132.673378,7128.69359 136.4655,7126.4958 C137.941941,7127.3479 139.418382,7128.20519 140.894822,7129.05729 L141.532023,7129.42619 L125.04251,7138.97076 L108.558177,7129.42619 L113.697227,7126.44904 Z" id="Genlots-logo"></path>
        </g>
    </g>
</svg>