<?xml version="1.0" encoding="UTF-8"?>
<svg width="199px" height="618px" viewBox="0 0 199 618" version="1.1" xmlns="http://www.w3.org/2000/svg" xmlns:xlink="http://www.w3.org/1999/xlink">
    <!-- Generator: sketchtool 64 (101010) - https://sketch.com -->
    <title>0BF9D0F8-FB8D-4398-BAA7-287588F5281B</title>
    <desc>Created with sketchtool.</desc>
    <g id="UI" stroke="none" stroke-width="1" fill="none" fill-rule="evenodd" opacity="0.5">
        <g id="Home---hero-dark-2" transform="translate(-1241.000000, -568.000000)">
            <g id="background-pattern" transform="translate(1248.000000, 569.000000)">
                <path id="Line-4-Copy-9" d="M98.5011428,275.373859 L99.5011421,275.375001 L192.001142,275.480649 L193,275.48179 L193,345.375 L199,345.375 L199,359.375 L185,359.375 L185,345.375 L191,345.375 L191,277.479 L99.4988579,277.374999 L98.4988585,277.373857 L98.5011428,275.373859 Z M197,347.375 L187,347.375 L187,357.375 L197,357.375 L197,347.375 Z" fill="#D8DEFF" fill-rule="nonzero"></path>
                <path id="Line-4-Copy-10" d="M114.50383,445.371185 L115.503823,445.375007 L147.503823,445.497337 L148.5,445.501145 L148.5,527.375 L154.5,527.375 L154.5,541.375 L140.5,541.375 L140.5,527.375 L146.5,527.375 L146.5,447.493 L115.496177,447.374993 L114.496185,447.37117 L114.50383,445.371185 Z M152.5,529.375 L142.5,529.375 L142.5,539.375 L152.5,539.375 L152.5,529.375 Z" fill="#D8DEFF" fill-rule="nonzero"></path>
                <path id="Line-4-Copy-12" d="M77,200.965335 L77,202.965335 L52.762,202.965 L52.7621622,448.811024 L1,448.811 L1,551.874 L7,551.875 L7,565.875 L-7,565.875 L-7,551.875 L-1,551.874 L-1,446.811024 L50.762,446.811 L50.7621622,200.965335 L77,200.965335 Z M5,553.874 L-5,553.874 L-5,563.874 L5,563.874 L5,553.874 Z" fill="#D8DEFF" fill-rule="nonzero"></path>
                <path id="Line-4-Copy-11" d="M189.5,122.875 L189.5,219.875 L195.5,219.875 L195.5,233.875 L181.5,233.875 L181.5,219.875 L187.5,219.875 L187.5,124.875 L75,124.875 L75,122.875 L189.5,122.875 Z M193.5,221.875 L183.5,221.875 L183.5,231.875 L193.5,231.875 L193.5,221.875 Z" fill="#D8DEFF" fill-rule="nonzero"></path>
                <path id="Line-4-Copy-16" d="M188.348,148.895 L188.500006,138.112813 L188.253,65.375 L146.5,65.375 L146.5,63.375 L190.246615,63.375 L190.249994,64.3716095 L190.499901,138.123466 L190.348,148.923 L195.347716,148.993815 L196.347618,149.007859 L196.333574,150.00776 L196.165046,162.006577 L196.151002,163.006478 L195.1511,162.992434 L183.152284,162.823906 L182.152382,162.809862 L182.166426,161.809961 L182.334954,149.811144 L182.348998,148.811243 L188.348,148.895 Z M184.32,150.839 L184.18,160.838 L194.179,160.978 L194.319,150.979 L190.319,150.923 L190.319974,150.93388 L188.320171,150.905792 L188.32,150.895 L184.32,150.839 Z" fill="#D8DEFF" fill-rule="nonzero"></path>
                <path id="Line-4-Copy-13" d="M116.5,396.390478 L116.5,398.390478 L53.5,398.39 L53.5,483.375 L59.5,483.375 L59.5,497.375 L45.5,497.375 L45.5,483.375 L51.5,483.375 L51.5,396.390478 L116.5,396.390478 Z M57.5,485.375 L47.5,485.375 L47.5,495.375 L57.5,495.375 L57.5,485.375 Z" fill="#D8DEFF" fill-rule="nonzero"></path>
                <path id="Line-4-Copy-15" d="M148.5,20.375 L148.5,88.8211241 L116.5,88.821 L116.5,186.374 L122.5,186.375 L122.5,200.375 L108.5,200.375 L108.5,186.375 L114.5,186.374 L114.5,86.8211241 L146.5,86.821 L146.5,20.375 L148.5,20.375 Z M120.5,188.374 L110.5,188.374 L110.5,198.374 L120.5,198.374 L120.5,188.374 Z" fill="#D8DEFF" fill-rule="nonzero"></path>
                <path id="Line-4-Copy-17" d="M116.5,-0.75 L116.5,34.5 L122.5,34.5 L122.5,48.5 L108.5,48.5 L108.5,34.5 L114.5,34.5 L114.5,-0.75 L116.5,-0.75 Z M120.5,36.5 L110.5,36.5 L110.5,46.5 L120.5,46.5 L120.5,36.5 Z" fill="#D8DEFF" fill-rule="nonzero"></path>
                <path id="Line-4-Copy-19" d="M77,567.625 L77,602.875 L83,602.875 L83,616.875 L69,616.875 L69,602.875 L75,602.875 L75,567.625 L77,567.625 Z M81,604.875 L71,604.875 L71,614.875 L81,614.875 L81,604.875 Z" fill="#D8DEFF" fill-rule="nonzero"></path>
                <line x1="76" y1="526.625" x2="76" y2="567.875" id="Line-4-Copy-20" stroke="#D8DEFF" stroke-width="2" stroke-linecap="square" stroke-dasharray="4"></line>
            </g>
        </g>
    </g>
</svg>