<?xml version="1.0" encoding="UTF-8"?>
<svg width="271px" height="31px" viewBox="0 0 271 31" version="1.1" xmlns="http://www.w3.org/2000/svg" xmlns:xlink="http://www.w3.org/1999/xlink">
    <!-- Generator: sketchtool 64 (101010) - https://sketch.com -->
    <title>A6F74859-9498-4CF7-BDCC-D6BBE329354F</title>
    <desc>Created with sketchtool.</desc>
    <g id="UI" stroke="none" stroke-width="1" fill="none" fill-rule="evenodd">
        <g id="About-us" transform="translate(-1065.000000, -3785.000000)" fill-rule="nonzero">
            <g id="ACE_Logo" transform="translate(1065.000000, 3785.000000)">
                <path d="M51.786,7.236 L51.732,7.236 L48.789,15.255 L54.756,15.255 L51.786,7.236 Z M63.126,23.004 L63.126,23.517 L54.378,23.517 L54.378,23.004 L57.429,22.437 L55.161,16.254 L48.438,16.254 L46.224,22.248 L48.438,23.004 L48.438,23.517 L42.876,23.517 L42.876,23.004 L45.063,22.167 L52.137,3.564 L53.568,3.564 L60.669,22.275 L63.126,23.004 Z" id="Shape" fill="#323343"></path>
                <g id="Group" transform="translate(62.640000, 2.970000)">
                    <path d="M16.902,19.386 C14.931,20.439 13.338,21.033 10.53,21.033 C4.347,21.033 0.054,17.01 0.054,10.881 C0.054,5.13 4.509,0.324 10.611,0.324 C12.177,0.324 13.959,0.675 15.12,1.296 L16.443,0.243 L16.794,0.243 L17.037,6.885 L16.551,6.939 C14.499,2.781 12.42,1.215 9.369,1.215 C6.669,1.215 3.645,3.888 3.645,10.341 C3.645,16.686 7.155,19.98 11.34,19.98 C12.258,19.98 13.041,19.845 13.743,19.548 L17.226,15.174 L17.496,15.309 L16.902,19.386 Z" id="Path" fill="#323343"></path>
                    <path d="M36.531,6.102 L36.261,6.318 L33.885,3.672 C32.778,2.457 32.373,1.809 30.483,1.809 L26.514,1.809 L26.514,10.152 L28.134,10.152 C29.97,10.152 30.672,9.396 31.239,7.236 L31.509,6.21 L31.968,6.21 L31.968,14.931 L31.509,14.931 L31.239,13.959 C30.699,11.799 29.97,11.016 28.134,11.016 L26.514,11.016 L26.514,19.494 L31.887,19.494 C33.696,19.494 34.101,19.008 34.965,17.847 L37.638,14.364 L37.935,14.499 L37.098,20.547 L20.385,20.547 L20.385,20.034 L23.436,19.467 L23.436,1.89 L20.385,1.323 L20.385,0.81 L35.775,0.81 L36.531,6.102 Z" id="Path" fill="#323343"></path>
                    <path d="M100.008,19.386 C98.037,20.439 96.444,21.033 93.636,21.033 C87.453,21.033 83.16,17.01 83.16,10.881 C83.16,5.13 87.615,0.324 93.69,0.324 C95.256,0.324 97.038,0.675 98.199,1.296 L99.522,0.243 L99.873,0.243 L100.116,6.885 L99.63,6.939 C97.578,2.781 95.526,1.215 92.448,1.215 C89.748,1.215 86.724,3.888 86.724,10.341 C86.724,16.686 90.234,19.98 94.446,19.98 C95.364,19.98 96.12,19.845 96.849,19.548 L100.332,15.174 L100.602,15.309 L100.008,19.386 Z" id="Path" fill="#90492D"></path>
                    <path d="M109.944,6.858 C107.838,6.858 106.137,9.072 106.137,13.716 C106.137,18.252 108.027,20.385 110.16,20.385 C112.428,20.385 113.967,18.171 113.967,13.527 C113.967,8.991 112.239,6.858 109.944,6.858 M109.836,21.06 C105.516,21.06 103.14,17.874 103.14,13.608 C103.14,9.639 105.786,6.156 110.268,6.156 C114.669,6.156 116.937,9.261 116.937,13.5 C116.937,17.496 114.372,21.06 109.836,21.06" id="Shape" fill="#90492D"></path>
                    <path d="M135.648,8.343 C134.352,8.343 133.596,8.775 132.354,9.477 L132.354,19.602 L134.379,20.142 L134.379,20.547 L127.845,20.547 L127.845,20.142 L129.762,19.602 L129.762,11.637 C129.762,9.234 128.952,8.343 126.927,8.343 C125.631,8.343 124.956,8.586 123.741,9.315 L123.741,19.629 L125.658,20.169 L125.658,20.574 L119.07,20.574 L119.07,20.169 L121.095,19.629 L121.095,8.829 L119.097,7.533 L119.097,7.263 L123.417,6.156 L123.525,6.237 L123.471,8.721 L123.579,8.775 C125.388,7.047 126.927,6.183 128.601,6.183 C130.599,6.183 131.652,7.479 132.084,8.91 L132.246,8.964 C134.055,7.236 135.675,6.129 137.349,6.129 C140.13,6.129 141.075,8.262 141.075,10.476 L141.075,19.602 L143.127,20.142 L143.127,20.547 L136.539,20.547 L136.539,20.142 L138.483,19.602 L138.483,11.799 C138.456,9.45 137.673,8.343 135.648,8.343" id="Path" fill="#90492D"></path>
                    <path d="M152.145,8.127 C151.119,8.127 149.904,8.667 149.121,9.207 L149.121,18.765 C150.201,19.737 151.281,20.25 152.631,20.25 C154.602,20.25 156.6,18.252 156.6,13.824 C156.6,10.422 154.953,8.127 152.145,8.127 M151.821,21.06 C150.849,21.06 149.985,20.925 149.121,20.709 L149.121,25.92 L151.47,26.676 L151.47,27.081 L144.477,27.081 L144.477,26.676 L146.502,25.92 L146.502,8.829 L144.504,7.533 L144.504,7.263 L148.824,6.156 L148.959,6.237 L148.905,8.721 L149.04,8.775 C150.579,7.128 152.037,6.183 153.873,6.183 C156.978,6.183 159.381,8.91 159.381,13.23 C159.327,17.253 156.465,21.06 151.821,21.06" id="Shape" fill="#90492D"></path>
                    <path d="M169.614,13.959 C165.672,13.959 164.376,15.39 164.376,17.064 C164.376,18.414 165.24,19.197 166.59,19.197 C167.427,19.197 168.48,18.9 169.614,18.252 L169.614,13.959 L169.614,13.959 Z M172.206,18.792 C172.206,19.683 172.935,19.98 174.798,19.791 L174.852,20.142 C174.258,20.547 172.746,21.087 171.612,21.087 C170.451,21.087 169.83,20.439 169.749,18.792 L169.614,18.738 C168.21,20.169 166.644,21.087 164.97,21.087 C162.972,21.087 161.676,19.899 161.676,18.009 C161.676,15.228 164.97,13.689 169.614,13.068 L169.614,10.746 C169.614,8.667 168.291,7.587 166.455,7.587 C165.78,7.587 164.97,7.749 164.187,8.046 C164.862,8.613 165.132,9.261 165.132,9.855 C165.132,10.638 164.565,11.34 163.701,11.34 C162.783,11.34 162.216,10.611 162.216,9.828 C162.216,7.857 165.402,6.237 168.318,6.237 C171.018,6.237 172.179,7.695 172.179,10.503 L172.179,18.792 L172.206,18.792 Z" id="Shape" fill="#90492D"></path>
                    <path d="M189.486,19.602 L191.511,20.142 L191.511,20.547 L184.95,20.547 L184.95,20.142 L186.894,19.602 L186.894,11.799 C186.894,9.45 186.057,8.316 184.005,8.316 C182.709,8.316 181.791,8.559 180.549,9.288 L180.549,19.602 L182.466,20.142 L182.466,20.547 L175.932,20.547 L175.932,20.142 L177.957,19.602 L177.957,8.829 L175.959,7.533 L175.959,7.263 L180.279,6.156 L180.414,6.237 L180.36,8.721 L180.468,8.775 C182.304,7.047 184.059,6.183 185.733,6.183 C188.487,6.183 189.513,8.289 189.513,10.503 L189.513,19.602 L189.486,19.602 Z" id="Path" fill="#90492D"></path>
                    <path d="M199.206,23.301 C198.18,25.839 196.911,27.081 195.183,27.081 C193.725,27.081 193.131,26.19 193.131,25.353 C193.131,24.516 193.833,23.868 194.697,23.868 C195.642,23.868 196.209,24.462 196.857,25.326 C197.451,24.759 197.991,23.922 198.45,22.896 L199.341,20.844 L193.995,7.722 L192.132,7.074 L192.132,6.669 L199.125,6.669 L199.125,7.074 L196.992,7.722 L200.583,17.388 L200.745,17.388 L204.066,7.992 L202.122,7.074 L202.122,6.669 L207.387,6.669 L207.387,7.074 L205.308,8.046 L199.206,23.301 Z" id="Path" fill="#90492D"></path>
                </g>
                <rect id="Rectangle" fill="#323343" x="106.38" y="3.429" width="1" height="20.466"></rect>
                <rect id="Rectangle" fill="#323343" x="140.049" y="3.429" width="1" height="20.466"></rect>
                <g id="Group">
                    <path d="M125.334,19.737 C123.552,21.546 120.933,21.546 119.124,19.737 C117.99,18.603 117.531,16.767 117.99,15.12 C120.798,14.823 123.66,15.012 126.819,15.282 C126.873,17.253 126.414,18.63 125.334,19.737 M116.505,12.528 C115.425,12.555 114.588,12.609 113.832,11.826 C112.887,10.854 112.833,9.585 113.724,8.694 C114.75,7.668 116.289,7.992 117.207,8.91 C118.017,9.72 118.314,10.854 118.179,12.42 L116.505,12.528 Z M136.107,9.747 L136.053,9.828 C135.621,10.449 135.162,11.016 134.703,11.502 C132.813,13.419 130.086,13.068 127.44,12.69 L126.468,5.832 L127.521,3.51 L127.197,3.186 L122.634,7.83 L122.877,8.073 L124.929,7.452 L126.414,12.69 L118.962,12.474 L118.989,12.312 L119.07,12.15 C119.664,10.449 120.339,8.532 118.827,6.993 C117.18,5.346 114.75,6.075 113.211,7.668 C111.51,9.396 110.862,12.285 112.698,14.148 C113.832,15.309 115.506,15.201 116.991,15.12 L117.126,15.12 C116.613,17.307 116.235,20.412 118.341,22.518 C120.906,25.11 124.362,24.003 125.901,22.464 C127.845,20.493 127.818,18.063 127.602,15.309 C129.195,15.336 130.113,15.633 130.734,15.822 C131.382,16.011 131.76,16.146 132.192,15.768 L133.785,14.445 C134.946,13.257 135.81,11.988 136.674,10.152 L136.728,10.017 L136.107,9.747 Z" id="Shape" fill="#323343"></path>
                    <path d="M6.129,19.197 L4.05,17.523 C4.05,17.523 2.862,20.601 2.646,21.573 C4.914,24.624 8.451,26.649 12.474,26.865 C15.147,27 17.739,26.352 19.98,24.975 C19.494,24.948 17.145,24.786 15.147,24.165 C12.933,23.463 9.828,22.113 6.129,19.197" id="Path" fill="#323343"></path>
                    <path d="M17.874,21.6 C18.441,21.6 19.008,21.546 19.575,21.465 C19.629,21.465 19.656,21.465 19.683,21.438 C17.307,12.015 13.959,7.344 12.528,6.507 C11.367,5.697 9.639,7.614 8.316,9.531 C8.181,9.72 8.073,9.909 7.938,10.071 C7.668,10.476 7.452,10.854 7.236,11.205 C5.913,13.392 4.617,16.2 4.617,16.2 C6.426,17.604 9.396,19.467 11.772,20.412 C13.365,21.087 15.606,21.627 17.874,21.6" id="Path" fill="#90492D"></path>
                    <path d="M0,14.58 C0.054,16.47 0.54,18.279 1.323,19.926 C1.431,19.629 2.268,17.415 2.592,16.794 C2.592,16.794 0.54,15.012 0,14.58" id="Path" fill="#323343"></path>
                    <path d="M16.551,5.211 C18.711,8.37 20.223,11.502 21.465,14.526 C22.626,17.388 23.571,20.736 23.733,21.519 C25.272,19.44 26.19,16.929 26.325,14.256 C26.568,9.342 24.138,4.887 20.304,2.376 C19.683,1.971 19.008,1.62 18.306,1.323 C16.929,0.729 15.417,0.351 13.851,0.27 C11.178,0.135 8.613,0.81 6.372,2.16 C6.183,2.268 6.021,2.376 5.832,2.511 C5.319,2.862 4.806,3.267 4.347,3.699 C3.132,4.806 2.133,6.102 1.431,7.533 C1.323,7.749 1.215,7.992 1.107,8.235 C0.486,9.666 0.108,11.205 0.027,12.825 C0.027,12.825 0.027,12.825 0.054,12.825 C0.081,12.852 1.971,14.256 2.781,14.85 C2.943,14.985 3.078,15.066 3.105,15.093 C3.132,15.093 3.132,15.12 3.132,15.12 C3.132,15.12 4.347,12.528 6.156,9.558 C7.506,7.344 9.585,4.401 11.34,3.051 C11.718,2.781 12.069,2.565 12.393,2.457 C12.933,2.214 14.31,1.971 16.551,5.211" id="Path" fill="#323343"></path>
                </g>
            </g>
        </g>
    </g>
</svg>