<?xml version="1.0" encoding="UTF-8"?>
<svg width="20px" height="20px" viewBox="0 0 20 20" version="1.1" xmlns="http://www.w3.org/2000/svg" xmlns:xlink="http://www.w3.org/1999/xlink">
    <!-- Generator: sketchtool 64 (101010) - https://sketch.com -->
    <title>D3CB2ED0-8E6E-4DC7-BA9F-469DE13626FF</title>
    <desc>Created with sketchtool.</desc>
    <g id="UI" stroke="none" stroke-width="1" fill="none" fill-rule="evenodd">
        <g id="Home---hero-dark-2" transform="translate(-417.000000, -2317.000000)" fill="#333366" fill-rule="nonzero">
            <path d="M422.555556,2317 L422.555556,2319.22222 L423.666667,2319.22222 L423.666667,2324.77778 L417.479601,2333.41493 C417.184045,2333.7916 417,2334.26111 417,2334.77778 C417,2336.00556 417.994444,2337 419.222222,2337 L434.777778,2337 C436.005556,2337 437,2336.00556 437,2334.77778 C437,2334.26111 436.815954,2333.7916 436.520399,2333.41493 L430.333333,2324.77778 L430.333333,2319.22222 L431.444444,2319.22222 L431.444444,2317 L422.555556,2317 Z M425.888889,2319.22222 L428.111111,2319.22222 L428.111111,2323.66667 L425.888889,2323.66667 L425.888889,2319.22222 Z M425.604601,2325.88889 L428.395399,2325.88889 L434.714843,2334.70833 L434.747396,2334.74089 L434.777778,2334.77778 L419.228733,2334.78646 L419.256944,2334.7474 L419.285156,2334.70833 L425.604601,2325.88889 Z M428.111111,2328.11111 C427.497461,2328.11111 427,2328.60857 427,2329.22222 C427,2329.83587 427.497461,2330.33333 428.111111,2330.33333 C428.724761,2330.33333 429.222222,2329.83587 429.222222,2329.22222 C429.222222,2328.60857 428.724761,2328.11111 428.111111,2328.11111 Z M425.333333,2330.33333 C424.412859,2330.33333 423.666667,2331.07953 423.666667,2332 C423.666667,2332.92047 424.412859,2333.66667 425.333333,2333.66667 C426.253808,2333.66667 427,2332.92047 427,2332 C427,2331.07953 426.253808,2330.33333 425.333333,2330.33333 Z" id="Chemical"></path>
        </g>
    </g>
</svg>