<?xml version="1.0" encoding="UTF-8"?>
<svg width="86px" height="95px" viewBox="0 0 86 95" version="1.1" xmlns="http://www.w3.org/2000/svg" xmlns:xlink="http://www.w3.org/1999/xlink">
    <!-- Generator: sketchtool 64 (101010) - https://sketch.com -->
    <title>365D9F1D-79F8-4536-A6C1-C06FA5E60ECB</title>
    <desc>Created with sketchtool.</desc>
    <g id="UI" stroke="none" stroke-width="1" fill="none" fill-rule="evenodd">
        <g id="Home---hero-dark-2" transform="translate(-522.000000, -1067.000000)" fill="#2D3141" fill-rule="nonzero">
            <g id="complexitiy" transform="translate(522.000000, 1067.000000)">
                <path d="M23.9612168,5 C20.7428313,5 17.7560434,6.75502333 16.1668156,9.55357143 L-2.80807915,43.0096726 C-4.39730695,45.8003157 -4.39730695,49.1996843 -2.80807915,51.9903274 L16.1668156,85.4464286 C17.7560434,88.2449787 20.7428313,90 23.9612168,90 L62.0387832,90 C65.2571687,90 68.2439566,88.2449787 69.8331844,85.4464286 L88.8080791,51.9903274 C90.397307,49.1996843 90.397307,45.8003157 88.8080791,43.0096726 L69.8331844,9.55357143 C68.2439566,6.75502333 65.2571687,5 62.0387832,5 L23.9612168,5 Z M23.9612168,9.04761905 L62.0387832,9.04761905 C63.7637737,9.04761905 65.3689726,9.95675274 66.2554265,11.5141369 L85.2942098,44.9702381 C86.1806637,46.5276223 86.1806637,48.4723777 85.2942098,50.0297619 L66.2554265,83.4858631 C65.3689726,85.0432473 63.7637737,85.952381 62.0387832,85.952381 L23.9612168,85.952381 C22.2362263,85.952381 20.6310274,85.0432473 19.7445735,83.4858631 L0.705790243,50.0297619 C-0.180663682,48.4723777 -0.180663682,46.5276223 0.705790243,44.9702381 L19.7445735,11.5141369 C20.6310274,9.95675274 22.2362263,9.04761905 23.9612168,9.04761905 Z" id="Shape" transform="translate(43.000000, 47.500000) rotate(-270.000000) translate(-43.000000, -47.500000) "></path>
                <path d="M42.074883,27 L42.074883,31.5306122 C40.400936,32.1247002 39.1794072,33.6904258 39.1794072,35.5282113 C39.1794072,36.6775214 39.6374801,37.7324426 40.400936,38.5042017 L35.1528861,49.7418968 L29.0452418,49.7418968 L29.0452418,52.5846339 L33.7956318,52.5846339 L29,62.8007203 L31.624025,64 L36.9625585,52.5846339 L42.074883,52.5846339 L42.074883,55.4273709 L44.9703588,55.4273709 L44.9703588,52.5846339 L50.0374415,52.5846339 L55.375975,64 L58,62.8451381 L53.2043682,52.5846339 L58,52.5846339 L58,49.7418968 L51.8923557,49.7418968 L46.6443058,38.5042017 C47.4077617,37.7324426 47.8658346,36.6775214 47.8658346,35.5282113 C47.8658346,33.6904258 46.6443058,32.1247002 44.9703588,31.5306122 L44.9703588,27 L42.074883,27 Z M43.5226209,34.1068427 C44.3369735,34.1068427 44.9703588,34.7286915 44.9703588,35.5282113 C44.9703588,36.3277311 44.3369735,36.9495798 43.5226209,36.9495798 C42.7082683,36.9495798 42.074883,36.3277311 42.074883,35.5282113 C42.074883,34.7286915 42.7082683,34.1068427 43.5226209,34.1068427 Z M43.024961,39.7478992 C43.1946185,39.770108 43.3529648,39.7923169 43.5226209,39.7923169 C43.6922784,39.7923169 43.8506247,39.770108 44.0202808,39.7478992 L48.725429,49.7418968 L44.9703588,49.7418968 L44.9703588,46.8991597 L42.074883,46.8991597 L42.074883,49.7418968 L38.3198128,49.7418968 L43.024961,39.7478992 Z" id="Shape"></path>
            </g>
        </g>
    </g>
</svg>