<?xml version="1.0" encoding="UTF-8"?>
<svg width="20px" height="20px" viewBox="0 0 20 20" version="1.1" xmlns="http://www.w3.org/2000/svg" xmlns:xlink="http://www.w3.org/1999/xlink">
    <!-- Generator: sketchtool 64 (101010) - https://sketch.com -->
    <title>013AF227-2872-4448-9F8C-14AADF904F86</title>
    <desc>Created with sketchtool.</desc>
    <g id="UI" stroke="none" stroke-width="1" fill="none" fill-rule="evenodd">
        <g id="Home---hero-dark-2" transform="translate(-908.000000, -2315.000000)" fill="#727A9D" fill-rule="nonzero">
            <path d="M911.410885,2315 L908,2315.01757 L908.009768,2317.01718 L910.080523,2317.00742 L913.376148,2324.91017 L912.178627,2326.82582 C911.778541,2327.46569 911.75785,2328.27395 912.123928,2328.93283 C912.490006,2329.5917 913.184608,2330.00098 913.938769,2330.00098 L925.999939,2330.00098 L925.999939,2328.00137 L913.938769,2328.00137 L913.874302,2327.8842 L915.050334,2326.00176 L922.520679,2326.00176 C923.247835,2326.00176 923.917025,2325.60654 924.2691,2324.97266 L927.873386,2318.48955 C928.046423,2318.17961 928.041703,2317.80155 927.861664,2317.49561 C927.681626,2317.19067 927.352274,2317.00351 926.998199,2317.00351 L912.247001,2317.00351 L911.410885,2315 Z M913.07921,2319.00312 L925.298617,2319.00312 L922.520679,2324.00215 L915.16364,2324.00215 L913.07921,2319.00312 Z M913.997375,2331.00078 C912.892569,2331.00078 911.996948,2331.89604 911.996948,2333.00039 C911.996948,2334.10474 912.892569,2335 913.997375,2335 C915.10218,2335 915.997802,2334.10474 915.997802,2333.00039 C915.997802,2331.89604 915.10218,2331.00078 913.997375,2331.00078 Z M923.999511,2331.00078 C922.894706,2331.00078 921.999084,2331.89604 921.999084,2333.00039 C921.999084,2334.10474 922.894706,2335 923.999511,2335 C925.104317,2335 925.999939,2334.10474 925.999939,2333.00039 C925.999939,2331.89604 925.104317,2331.00078 923.999511,2331.00078 Z" id="consumer-goods"></path>
        </g>
    </g>
</svg>