<?xml version="1.0" encoding="UTF-8"?>
<svg width="86px" height="95px" viewBox="0 0 86 95" version="1.1" xmlns="http://www.w3.org/2000/svg" xmlns:xlink="http://www.w3.org/1999/xlink">
    <!-- Generator: sketchtool 64 (101010) - https://sketch.com -->
    <title>B8724EB8-3BAF-4E6A-87E6-B8156EF7E39D</title>
    <desc>Created with sketchtool.</desc>
    <g id="UI" stroke="none" stroke-width="1" fill="none" fill-rule="evenodd">
        <g id="Home---hero-dark-2" transform="translate(-940.000000, -1067.000000)" fill="#2D3141" fill-rule="nonzero">
            <g id="control" transform="translate(940.000000, 1067.000000)">
                <path d="M51.0224359,28 L48.2177888,29.1503213 L49.1131418,31.3620196 C48.2652247,31.9193906 47.5299683,32.6309291 46.9666667,33.472917 L44.7134615,32.5241991 L43.5334932,35.322917 L45.8044872,36.2775641 C45.7155445,36.7400649 45.6621795,37.2144238 45.6621795,37.700641 C45.6621795,38.1809291 45.7155445,38.649359 45.8044872,39.1059291 L43.652083,39.9775641 L44.8024042,42.7940709 L46.9488778,41.9165068 C47.4825324,42.6991991 48.1525641,43.3751599 48.9293273,43.9147436 L47.9628205,46.2035264 L50.7615385,47.3775641 L51.7102564,45.1302881 C52.2083333,45.2370196 52.7241991,45.2903846 53.2519231,45.2903846 C53.7618597,45.2903846 54.254006,45.2429487 54.728365,45.1480769 L55.6296471,47.3538462 L58.4402247,46.2035264 L57.527083,43.9621795 C58.2860573,43.4403846 58.9383017,42.7881418 59.4660256,42.0350965 L61.6480769,42.9482368 L62.8280453,40.1495189 L60.6815701,39.2482368 C60.7883017,38.7501599 60.8416667,38.2342956 60.8416667,37.700641 C60.8416667,37.2262821 60.7942308,36.7578522 60.7112187,36.3072112 L63,35.3762821 L61.8556094,32.5657059 L59.5608974,33.496635 C59.0094555,32.6724359 58.3038462,31.9668265 57.4855777,31.4153846 L58.3927888,29.268911 L55.5940709,28.0889427 L54.6809291,30.2532051 C54.2184299,30.1642624 53.7440709,30.1108974 53.2519231,30.1108974 C52.8072112,30.1108974 52.3625008,30.1583333 51.9355777,30.2354163 L51.0224359,28 Z M53.2519231,33.1467949 C55.7897436,33.1467949 57.8057692,35.1687496 57.8057692,37.700641 C57.8057692,40.2384615 55.7897436,42.2544872 53.2519231,42.2544872 C50.7200317,42.2544872 48.6980769,40.2384615 48.6980769,37.700641 C48.6980769,35.1687496 50.7200317,33.1467949 53.2519231,33.1467949 Z M36.625641,40.7128205 L36.625641,43.8850965 C35.25,44.1163469 33.9929487,44.6855777 32.9019231,45.4623394 L30.6309291,43.197276 L28.4844555,45.3437496 L30.7554495,47.6147436 C29.9786863,48.7116983 29.4094555,49.9628205 29.1782051,51.3384615 L26,51.3384615 L26,54.374359 L29.1782051,54.374359 C29.4094555,55.75 29.9786863,57.0011222 30.7554495,58.0980769 L28.4844555,60.3690709 L30.6309291,62.5155445 L32.9019231,60.2504811 C33.9929487,61.0272443 35.25,61.5964751 36.625641,61.827724 L36.625641,65 L39.6615385,65 L39.6615385,61.827724 C41.0371795,61.5964751 42.2942308,61.0272443 43.3852564,60.2504811 L45.6562504,62.5155445 L47.802724,60.3690709 L45.5317315,58.0980769 C46.3084932,57.0011222 46.877724,55.75 47.1089744,54.374359 L50.2871795,54.374359 L50.2871795,51.3384615 L47.1089744,51.3384615 C46.877724,49.9628205 46.3084932,48.7116983 45.5317315,47.6147436 L47.802724,45.3437496 L45.6562504,43.197276 L43.3852564,45.4623394 C42.2942308,44.6855777 41.0371795,44.1163469 39.6615385,43.8850965 L39.6615385,40.7128205 L36.625641,40.7128205 Z M38.1435897,46.7846154 C41.5174676,46.7846154 44.2153846,49.4825324 44.2153846,52.8564103 C44.2153846,56.2302881 41.5174676,58.9282051 38.1435897,58.9282051 C34.7697119,58.9282051 32.0717949,56.2302881 32.0717949,52.8564103 C32.0717949,49.4825324 34.7697119,46.7846154 38.1435897,46.7846154 Z" id="Shape"></path>
                <path d="M23.9612168,5 C20.7428313,5 17.7560434,6.75502333 16.1668156,9.55357143 L-2.80807915,43.0096726 C-4.39730695,45.8003157 -4.39730695,49.1996843 -2.80807915,51.9903274 L16.1668156,85.4464286 C17.7560434,88.2449787 20.7428313,90 23.9612168,90 L62.0387832,90 C65.2571687,90 68.2439566,88.2449787 69.8331844,85.4464286 L88.8080791,51.9903274 C90.397307,49.1996843 90.397307,45.8003157 88.8080791,43.0096726 L69.8331844,9.55357143 C68.2439566,6.75502333 65.2571687,5 62.0387832,5 L23.9612168,5 Z M23.9612168,9.04761905 L62.0387832,9.04761905 C63.7637737,9.04761905 65.3689726,9.95675274 66.2554265,11.5141369 L85.2942098,44.9702381 C86.1806637,46.5276223 86.1806637,48.4723777 85.2942098,50.0297619 L66.2554265,83.4858631 C65.3689726,85.0432473 63.7637737,85.952381 62.0387832,85.952381 L23.9612168,85.952381 C22.2362263,85.952381 20.6310274,85.0432473 19.7445735,83.4858631 L0.705790243,50.0297619 C-0.180663682,48.4723777 -0.180663682,46.5276223 0.705790243,44.9702381 L19.7445735,11.5141369 C20.6310274,9.95675274 22.2362263,9.04761905 23.9612168,9.04761905 Z" id="Shape" transform="translate(43.000000, 47.500000) rotate(-270.000000) translate(-43.000000, -47.500000) "></path>
            </g>
        </g>
    </g>
</svg>