<?xml version="1.0" encoding="UTF-8"?>
<svg width="20px" height="21px" viewBox="0 0 20 21" version="1.1" xmlns="http://www.w3.org/2000/svg" xmlns:xlink="http://www.w3.org/1999/xlink">
    <!-- Generator: sketchtool 64 (101010) - https://sketch.com -->
    <title>56951CEE-0BA8-4065-98D0-1C4715CDC770</title>
    <desc>Created with sketchtool.</desc>
    <g id="UI" stroke="none" stroke-width="1" fill="none" fill-rule="evenodd">
        <g id="Home---hero-dark-2" transform="translate(-654.000000, -2315.000000)" fill="#727A9D" fill-rule="nonzero">
            <path d="M667.333333,2315 L667.333333,2319.42105 L667.333333,2321.63158 L667.333333,2323.84211 L665.111111,2323.84211 L664,2320.52632 L659.555556,2323.84211 L658.444444,2320.52632 L654,2323.84211 L654,2336 L674,2336 L674,2315 L667.333333,2315 Z M669.555556,2317.21053 L671.777778,2317.21053 L671.777778,2319.42105 L669.555556,2319.42105 L669.555556,2317.21053 Z M669.555556,2321.63158 L671.777778,2321.63158 L671.777778,2333.78947 L669.555556,2333.78947 L669.555556,2332.68421 L667.333333,2332.68421 L667.333333,2333.78947 L665.111111,2333.78947 L665.111111,2332.68421 L662.888889,2332.68421 L662.888889,2333.78947 L660.666667,2333.78947 L660.666667,2332.68421 L658.444444,2332.68421 L658.444444,2333.78947 L656.222222,2333.78947 L656.222222,2324.94737 L657.311632,2324.13569 L657.448351,2324.54153 L658.422743,2327.45148 L660.888021,2325.61009 L662.867188,2324.13569 L663.003907,2324.54153 L663.509549,2326.05263 L665.111111,2326.05263 L667.333333,2326.05263 L669.555556,2326.05263 L669.555556,2323.84211 L669.555556,2321.63158 Z M658.444444,2328.26316 L658.444444,2330.47368 L660.666667,2330.47368 L660.666667,2328.26316 L658.444444,2328.26316 Z M662.888889,2328.26316 L662.888889,2330.47368 L665.111111,2330.47368 L665.111111,2328.26316 L662.888889,2328.26316 Z M667.333333,2328.26316 L667.333333,2330.47368 L669.555556,2330.47368 L669.555556,2328.26316 L667.333333,2328.26316 Z" id="manufacturing"></path>
        </g>
    </g>
</svg>