<?xml version="1.0" encoding="UTF-8"?>
<svg width="20px" height="20px" viewBox="0 0 20 20" version="1.1" xmlns="http://www.w3.org/2000/svg" xmlns:xlink="http://www.w3.org/1999/xlink">
    <!-- Generator: sketchtool 64 (101010) - https://sketch.com -->
    <title>F1BFA463-AF09-4076-A0D3-A3D07976C900</title>
    <desc>Created with sketchtool.</desc>
    <g id="UI" stroke="none" stroke-width="1" fill="none" fill-rule="evenodd">
        <g id="Home---hero-dark-2" transform="translate(-124.000000, -2317.000000)" fill="#727A9D" fill-rule="nonzero">
            <path d="M137.865806,2317 C136.292759,2317 134.719773,2317.59843 133.524509,2318.79537 L125.792897,2326.53782 C123.402368,2328.9317 123.402368,2332.8387 125.792897,2335.23258 C125.870746,2335.31027 125.963165,2335.37179 126.064839,2335.41358 C126.066466,2335.41413 126.068094,2335.41468 126.069724,2335.41521 C128.474877,2337.57006 132.166377,2337.54493 134.47549,2335.23258 L142.207102,2327.49013 C144.597633,2325.09625 144.597633,2321.18925 142.207102,2318.79537 C141.011836,2317.59839 139.438853,2317 137.865806,2317 Z M137.865806,2318.66003 C139.008658,2318.66003 140.151573,2319.09818 141.028146,2319.97598 C142.781291,2321.73158 142.781291,2324.55392 141.028146,2326.30952 L139.246683,2328.09348 L137.751818,2329.59044 C137.425827,2329.91689 136.899648,2329.91769 136.57449,2329.59207 C135.469788,2328.48499 133.193945,2326.20516 133.193945,2326.20516 L133.192317,2326.20516 C132.541156,2325.55323 131.485564,2325.55323 130.834403,2326.20516 L128.173608,2328.87294 C127.847617,2329.19939 127.319809,2329.19939 126.994652,2328.87294 C126.671551,2328.54939 126.670768,2328.02838 126.988138,2327.70212 L134.703466,2319.97598 C135.580038,2319.09818 136.722954,2318.66003 137.865806,2318.66003 Z" id="pharma"></path>
        </g>
    </g>
</svg>