<?xml version="1.0" encoding="UTF-8"?>
<svg width="86px" height="95px" viewBox="0 0 86 95" version="1.1" xmlns="http://www.w3.org/2000/svg" xmlns:xlink="http://www.w3.org/1999/xlink">
    <!-- Generator: sketchtool 64 (101010) - https://sketch.com -->
    <title>7E74A827-1851-478F-B3A7-EBC832494504</title>
    <desc>Created with sketchtool.</desc>
    <g id="UI" stroke="none" stroke-width="1" fill="none" fill-rule="evenodd">
        <g id="Home---hero-dark-2" transform="translate(-101.000000, -1067.000000)" fill="#2D3141" fill-rule="nonzero">
            <g id="profitability" transform="translate(101.000000, 1067.000000)">
                <path d="M23.9612168,5 C20.7428313,5 17.7560434,6.75502333 16.1668156,9.55357143 L-2.80807915,43.0096726 C-4.39730695,45.8003157 -4.39730695,49.1996843 -2.80807915,51.9903274 L16.1668156,85.4464286 C17.7560434,88.2449787 20.7428313,90 23.9612168,90 L62.0387832,90 C65.2571687,90 68.2439566,88.2449787 69.8331844,85.4464286 L88.8080791,51.9903274 C90.397307,49.1996843 90.397307,45.8003157 88.8080791,43.0096726 L69.8331844,9.55357143 C68.2439566,6.75502333 65.2571687,5 62.0387832,5 L23.9612168,5 Z M23.9612168,9.04761905 L62.0387832,9.04761905 C63.7637737,9.04761905 65.3689726,9.95675274 66.2554265,11.5141369 L85.2942098,44.9702381 C86.1806637,46.5276223 86.1806637,48.4723777 85.2942098,50.0297619 L66.2554265,83.4858631 C65.3689726,85.0432473 63.7637737,85.952381 62.0387832,85.952381 L23.9612168,85.952381 C22.2362263,85.952381 20.6310274,85.0432473 19.7445735,83.4858631 L0.705790243,50.0297619 C-0.180663682,48.4723777 -0.180663682,46.5276223 0.705790243,44.9702381 L19.7445735,11.5141369 C20.6310274,9.95675274 22.2362263,9.04761905 23.9612168,9.04761905 Z" id="Shape" transform="translate(43.000000, 47.500000) rotate(-270.000000) translate(-43.000000, -47.500000) "></path>
                <path d="M33.5,32 L33.5,35 L36.5,35 L36.5,32 L33.5,32 Z M51.5,32 L51.5,35 L54.5,35 L54.5,32 L51.5,32 Z M51.488282,36.453125 L39.4414062,46.2412115 L34.1884766,42.4882812 L26.1757812,49.0244135 L28.0742188,51.3505865 L34.3115234,46.261718 L39.5585938,50.0087885 L51.511718,40.296875 L56.052734,43.8916016 L61.8681635,38.7470704 L59.8818365,36.5029296 L55.947266,39.9833984 L51.488282,36.453125 Z M33.5,38 L33.5,41 L36.5,41 L36.5,38 L33.5,38 Z M51.5,44 L51.5,47 L54.5,47 L54.5,44 L51.5,44 Z M33.5,50 L33.5,53 L36.5,53 L36.5,50 L33.5,50 Z M51.5,50 L51.5,53 L54.5,53 L54.5,50 L51.5,50 Z M33.5,56 L33.5,59 L36.5,59 L36.5,56 L33.5,56 Z M51.5,56 L51.5,59 L54.5,59 L54.5,56 L51.5,56 Z M26,62 L26,65 L62,65 L62,62 L26,62 Z" id="Shape"></path>
            </g>
        </g>
    </g>
</svg>